<mxfile host="app.diagrams.net" agent="Mozilla/5.0 (Windows NT 10.0; Win64; x64) AppleWebKit/537.36 (KHTML, like Gecko) Chrome/137.0.0.0 Safari/537.36 Edg/137.0.0.0" version="27.1.6">
  <diagram name="ページ1" id="HSipAqzM66P0VZGB3NzW">
    <mxGraphModel dx="810" dy="449" grid="1" gridSize="10" guides="1" tooltips="1" connect="1" arrows="1" fold="1" page="1" pageScale="1" pageWidth="827" pageHeight="1169" math="0" shadow="0">
      <root>
        <mxCell id="0" />
        <mxCell id="1" parent="0" />
        <mxCell id="H4IBosrJswtKUV_ZKLR6-1" value="" style="endArrow=none;html=1;rounded=0;strokeWidth=2;" parent="1" edge="1">
          <mxGeometry width="50" height="50" relative="1" as="geometry">
            <mxPoint x="65" y="119.72" as="sourcePoint" />
            <mxPoint x="215" y="119.72" as="targetPoint" />
          </mxGeometry>
        </mxCell>
        <mxCell id="H4IBosrJswtKUV_ZKLR6-4" value="intnet1 192.168.10.0/24" style="text;html=1;align=center;verticalAlign=middle;whiteSpace=wrap;rounded=0;" parent="1" vertex="1">
          <mxGeometry x="75" y="90" width="130" height="30" as="geometry" />
        </mxCell>
        <mxCell id="H4IBosrJswtKUV_ZKLR6-5" value="" style="endArrow=none;html=1;rounded=0;strokeWidth=2;" parent="1" edge="1">
          <mxGeometry width="50" height="50" relative="1" as="geometry">
            <mxPoint x="334" y="120" as="sourcePoint" />
            <mxPoint x="484" y="120" as="targetPoint" />
          </mxGeometry>
        </mxCell>
        <mxCell id="H4IBosrJswtKUV_ZKLR6-6" value="intnet2 192.168.20.0/24" style="text;html=1;align=center;verticalAlign=middle;whiteSpace=wrap;rounded=0;" parent="1" vertex="1">
          <mxGeometry x="334" y="90" width="130" height="30" as="geometry" />
        </mxCell>
        <mxCell id="H4IBosrJswtKUV_ZKLR6-7" value="&lt;font style=&quot;font-size: 22px; color: rgb(255, 255, 255);&quot;&gt;exp1-1&lt;/font&gt;" style="rounded=0;whiteSpace=wrap;html=1;fillColor=#3399FF;strokeColor=#6c8ebf;" parent="1" vertex="1">
          <mxGeometry x="80" y="220" width="120" height="60" as="geometry" />
        </mxCell>
        <mxCell id="H4IBosrJswtKUV_ZKLR6-9" value="&lt;font style=&quot;font-size: 22px; color: rgb(255, 255, 255);&quot;&gt;exp1-2&lt;/font&gt;" style="rounded=0;whiteSpace=wrap;html=1;fillColor=#3399FF;strokeColor=#6c8ebf;" parent="1" vertex="1">
          <mxGeometry x="348" y="220" width="120" height="60" as="geometry" />
        </mxCell>
        <mxCell id="H4IBosrJswtKUV_ZKLR6-10" value="" style="endArrow=none;html=1;rounded=0;entryX=0.5;entryY=0;entryDx=0;entryDy=0;strokeWidth=3;exitX=0.5;exitY=1;exitDx=0;exitDy=0;" parent="1" source="H4IBosrJswtKUV_ZKLR6-4" target="H4IBosrJswtKUV_ZKLR6-7" edge="1">
          <mxGeometry width="50" height="50" relative="1" as="geometry">
            <mxPoint x="140" y="130" as="sourcePoint" />
            <mxPoint x="170" y="110" as="targetPoint" />
          </mxGeometry>
        </mxCell>
        <mxCell id="H4IBosrJswtKUV_ZKLR6-11" value="" style="endArrow=none;html=1;rounded=0;entryX=0.5;entryY=0;entryDx=0;entryDy=0;strokeWidth=3;exitX=0.5;exitY=1;exitDx=0;exitDy=0;" parent="1" edge="1" target="H4IBosrJswtKUV_ZKLR6-9">
          <mxGeometry width="50" height="50" relative="1" as="geometry">
            <mxPoint x="407.8" y="120" as="sourcePoint" />
            <mxPoint x="407.8" y="170" as="targetPoint" />
          </mxGeometry>
        </mxCell>
        <mxCell id="1Fw3-pIWrhaJjm8-JRxh-1" value="" style="endArrow=none;html=1;rounded=0;strokeWidth=2;" edge="1" parent="1">
          <mxGeometry width="50" height="50" relative="1" as="geometry">
            <mxPoint x="84" y="370" as="sourcePoint" />
            <mxPoint x="510" y="370" as="targetPoint" />
          </mxGeometry>
        </mxCell>
        <mxCell id="1Fw3-pIWrhaJjm8-JRxh-2" value="intnetA 192.168.100.0/24" style="text;html=1;align=center;verticalAlign=middle;whiteSpace=wrap;rounded=0;" vertex="1" parent="1">
          <mxGeometry x="174" y="370" width="150" height="30" as="geometry" />
        </mxCell>
        <mxCell id="1Fw3-pIWrhaJjm8-JRxh-3" value="&lt;font style=&quot;font-size: 10px;&quot;&gt;インターフェース:enp0s3&lt;/font&gt;&lt;div&gt;&lt;font style=&quot;font-size: 10px;&quot;&gt;IPアドレス:&lt;span style=&quot;background-color: transparent; color: light-dark(rgb(0, 0, 0), rgb(255, 255, 255));&quot;&gt;192.168.10.1&lt;/span&gt;&lt;/font&gt;&lt;/div&gt;&lt;div&gt;&lt;font style=&quot;font-size: 10px;&quot;&gt;サブネットマスク:255.255.255.0&lt;/font&gt;&lt;/div&gt;" style="text;html=1;align=center;verticalAlign=middle;whiteSpace=wrap;rounded=0;" vertex="1" parent="1">
          <mxGeometry x="140" y="180" width="160" height="30" as="geometry" />
        </mxCell>
        <mxCell id="1Fw3-pIWrhaJjm8-JRxh-6" value="" style="endArrow=none;html=1;rounded=0;strokeWidth=3;exitX=0.5;exitY=1;exitDx=0;exitDy=0;" edge="1" parent="1">
          <mxGeometry width="50" height="50" relative="1" as="geometry">
            <mxPoint x="139.71" y="280" as="sourcePoint" />
            <mxPoint x="140" y="370" as="targetPoint" />
          </mxGeometry>
        </mxCell>
        <mxCell id="1Fw3-pIWrhaJjm8-JRxh-7" value="" style="endArrow=none;html=1;rounded=0;strokeWidth=3;exitX=0.5;exitY=1;exitDx=0;exitDy=0;" edge="1" parent="1">
          <mxGeometry width="50" height="50" relative="1" as="geometry">
            <mxPoint x="407.71" y="280" as="sourcePoint" />
            <mxPoint x="407.99999999999994" y="370" as="targetPoint" />
          </mxGeometry>
        </mxCell>
        <mxCell id="1Fw3-pIWrhaJjm8-JRxh-10" value="&lt;font style=&quot;font-size: 10px;&quot;&gt;インターフェース:enp0s3&lt;/font&gt;&lt;div&gt;&lt;font style=&quot;font-size: 10px;&quot;&gt;IPアドレス:&lt;span style=&quot;background-color: transparent; color: light-dark(rgb(0, 0, 0), rgb(255, 255, 255));&quot;&gt;192.168.20.1&lt;/span&gt;&lt;/font&gt;&lt;/div&gt;&lt;div&gt;&lt;font style=&quot;font-size: 10px;&quot;&gt;サブネットマスク:255.255.255.0&lt;/font&gt;&lt;/div&gt;" style="text;html=1;align=center;verticalAlign=middle;whiteSpace=wrap;rounded=0;" vertex="1" parent="1">
          <mxGeometry x="414" y="180" width="160" height="30" as="geometry" />
        </mxCell>
        <mxCell id="1Fw3-pIWrhaJjm8-JRxh-11" value="&lt;font style=&quot;font-size: 10px;&quot;&gt;インターフェース:enp0s8&lt;/font&gt;&lt;div&gt;&lt;font style=&quot;font-size: 10px;&quot;&gt;IPアドレス:&lt;span style=&quot;background-color: transparent; color: light-dark(rgb(0, 0, 0), rgb(255, 255, 255));&quot;&gt;192.168.100.10&lt;/span&gt;&lt;/font&gt;&lt;/div&gt;&lt;div&gt;&lt;font style=&quot;font-size: 10px;&quot;&gt;サブネットマスク:255.255.255.0&lt;/font&gt;&lt;/div&gt;" style="text;html=1;align=center;verticalAlign=middle;whiteSpace=wrap;rounded=0;" vertex="1" parent="1">
          <mxGeometry x="140" y="290" width="160" height="30" as="geometry" />
        </mxCell>
        <mxCell id="1Fw3-pIWrhaJjm8-JRxh-12" value="&lt;font style=&quot;font-size: 10px;&quot;&gt;インターフェース:enp0s8&lt;/font&gt;&lt;div&gt;&lt;font style=&quot;font-size: 10px;&quot;&gt;IPアドレス:&lt;span style=&quot;background-color: transparent; color: light-dark(rgb(0, 0, 0), rgb(255, 255, 255));&quot;&gt;192.168.100.20&lt;/span&gt;&lt;/font&gt;&lt;/div&gt;&lt;div&gt;&lt;font style=&quot;font-size: 10px;&quot;&gt;サブネットマスク:255.255.255.0&lt;/font&gt;&lt;/div&gt;" style="text;html=1;align=center;verticalAlign=middle;whiteSpace=wrap;rounded=0;" vertex="1" parent="1">
          <mxGeometry x="414" y="290" width="160" height="30" as="geometry" />
        </mxCell>
      </root>
    </mxGraphModel>
  </diagram>
</mxfile>
